<mxfile host="drawio.corp.amazon.com" modified="2024-10-18T05:50:36.934Z" agent="Mozilla/5.0 (Macintosh; Intel Mac OS X 10.15; rv:131.0) Gecko/20100101 Firefox/131.0" etag="BGw6YI9u7PEf0Kv0m7XS" version="21.7.4" type="device">
  <diagram name="Page-1" id="gOc5RSL0Ymv5oK6ES_ca">
    <mxGraphModel dx="1234" dy="1105" grid="1" gridSize="10" guides="1" tooltips="1" connect="1" arrows="1" fold="1" page="1" pageScale="1" pageWidth="850" pageHeight="1100" math="0" shadow="0">
      <root>
        <mxCell id="0" />
        <mxCell id="1" parent="0" />
        <mxCell id="CfEisWrMyOf9icWctsmT-1" value="AWS Cloud" style="points=[[0,0],[0.25,0],[0.5,0],[0.75,0],[1,0],[1,0.25],[1,0.5],[1,0.75],[1,1],[0.75,1],[0.5,1],[0.25,1],[0,1],[0,0.75],[0,0.5],[0,0.25]];outlineConnect=0;gradientColor=none;html=1;whiteSpace=wrap;fontSize=12;fontStyle=0;container=1;pointerEvents=0;collapsible=0;recursiveResize=0;shape=mxgraph.aws4.group;grIcon=mxgraph.aws4.group_aws_cloud_alt;strokeColor=#232F3E;fillColor=none;verticalAlign=top;align=left;spacingLeft=30;fontColor=#232F3E;dashed=0;" vertex="1" parent="1">
          <mxGeometry x="40" y="110" width="790" height="840" as="geometry" />
        </mxCell>
        <mxCell id="CfEisWrMyOf9icWctsmT-2" value="Region" style="points=[[0,0],[0.25,0],[0.5,0],[0.75,0],[1,0],[1,0.25],[1,0.5],[1,0.75],[1,1],[0.75,1],[0.5,1],[0.25,1],[0,1],[0,0.75],[0,0.5],[0,0.25]];outlineConnect=0;gradientColor=none;html=1;whiteSpace=wrap;fontSize=12;fontStyle=0;container=1;pointerEvents=0;collapsible=0;recursiveResize=0;shape=mxgraph.aws4.group;grIcon=mxgraph.aws4.group_region;strokeColor=#147EBA;fillColor=none;verticalAlign=top;align=left;spacingLeft=30;fontColor=#147EBA;dashed=1;" vertex="1" parent="CfEisWrMyOf9icWctsmT-1">
          <mxGeometry x="20" y="30" width="750" height="790" as="geometry" />
        </mxCell>
        <mxCell id="CfEisWrMyOf9icWctsmT-3" value="VPC" style="points=[[0,0],[0.25,0],[0.5,0],[0.75,0],[1,0],[1,0.25],[1,0.5],[1,0.75],[1,1],[0.75,1],[0.5,1],[0.25,1],[0,1],[0,0.75],[0,0.5],[0,0.25]];outlineConnect=0;gradientColor=none;html=1;whiteSpace=wrap;fontSize=12;fontStyle=0;container=1;pointerEvents=0;collapsible=0;recursiveResize=0;shape=mxgraph.aws4.group;grIcon=mxgraph.aws4.group_vpc;strokeColor=#248814;fillColor=none;verticalAlign=top;align=left;spacingLeft=30;fontColor=#AAB7B8;dashed=0;" vertex="1" parent="CfEisWrMyOf9icWctsmT-2">
          <mxGeometry x="20" y="30" width="710" height="570" as="geometry" />
        </mxCell>
        <mxCell id="CfEisWrMyOf9icWctsmT-5" value="Availability Zone 1" style="points=[[0,0],[0.25,0],[0.5,0],[0.75,0],[1,0],[1,0.25],[1,0.5],[1,0.75],[1,1],[0.75,1],[0.5,1],[0.25,1],[0,1],[0,0.75],[0,0.5],[0,0.25]];outlineConnect=0;gradientColor=none;html=1;whiteSpace=wrap;fontSize=12;fontStyle=0;container=1;pointerEvents=0;collapsible=0;recursiveResize=0;shape=mxgraph.aws4.group;grIcon=mxgraph.aws4.group_security_group;grStroke=0;strokeColor=#147EBA;fillColor=#E6F2F8;verticalAlign=top;align=left;spacingLeft=30;fontColor=#147EBA;dashed=0;" vertex="1" parent="CfEisWrMyOf9icWctsmT-3">
          <mxGeometry x="20" y="30" width="180" height="520" as="geometry" />
        </mxCell>
        <mxCell id="CfEisWrMyOf9icWctsmT-10" value="Writer Instance" style="sketch=0;outlineConnect=0;fontColor=#232F3E;gradientColor=none;fillColor=#C925D1;strokeColor=none;dashed=0;verticalLabelPosition=bottom;verticalAlign=top;align=center;html=1;fontSize=12;fontStyle=0;aspect=fixed;pointerEvents=1;shape=mxgraph.aws4.aurora_instance;" vertex="1" parent="CfEisWrMyOf9icWctsmT-5">
          <mxGeometry x="51" y="210" width="78" height="78" as="geometry" />
        </mxCell>
        <mxCell id="CfEisWrMyOf9icWctsmT-8" value="Availability Zone 3" style="points=[[0,0],[0.25,0],[0.5,0],[0.75,0],[1,0],[1,0.25],[1,0.5],[1,0.75],[1,1],[0.75,1],[0.5,1],[0.25,1],[0,1],[0,0.75],[0,0.5],[0,0.25]];outlineConnect=0;gradientColor=none;html=1;whiteSpace=wrap;fontSize=12;fontStyle=0;container=1;pointerEvents=0;collapsible=0;recursiveResize=0;shape=mxgraph.aws4.group;grIcon=mxgraph.aws4.group_security_group;grStroke=0;strokeColor=#147EBA;fillColor=#E6F2F8;verticalAlign=top;align=left;spacingLeft=30;fontColor=#147EBA;dashed=0;" vertex="1" parent="CfEisWrMyOf9icWctsmT-3">
          <mxGeometry x="500" y="30" width="180" height="520" as="geometry" />
        </mxCell>
        <mxCell id="CfEisWrMyOf9icWctsmT-12" value="*New* Reader Instance 2" style="sketch=0;outlineConnect=0;fontColor=#232F3E;gradientColor=none;fillColor=#C925D1;strokeColor=none;dashed=0;verticalLabelPosition=bottom;verticalAlign=top;align=center;html=1;fontSize=12;fontStyle=0;aspect=fixed;pointerEvents=1;shape=mxgraph.aws4.aurora_instance;" vertex="1" parent="CfEisWrMyOf9icWctsmT-8">
          <mxGeometry x="51" y="210" width="78" height="78" as="geometry" />
        </mxCell>
        <mxCell id="CfEisWrMyOf9icWctsmT-26" style="edgeStyle=orthogonalEdgeStyle;rounded=0;orthogonalLoop=1;jettySize=auto;html=1;" edge="1" parent="CfEisWrMyOf9icWctsmT-8" source="CfEisWrMyOf9icWctsmT-21" target="CfEisWrMyOf9icWctsmT-12">
          <mxGeometry relative="1" as="geometry" />
        </mxCell>
        <mxCell id="CfEisWrMyOf9icWctsmT-27" value="Run pg_prewarm statements" style="edgeLabel;html=1;align=center;verticalAlign=middle;resizable=0;points=[];" vertex="1" connectable="0" parent="CfEisWrMyOf9icWctsmT-26">
          <mxGeometry x="-0.1639" y="-1" relative="1" as="geometry">
            <mxPoint as="offset" />
          </mxGeometry>
        </mxCell>
        <mxCell id="CfEisWrMyOf9icWctsmT-21" value="Pre-warmer AWS Lambda Function" style="sketch=0;outlineConnect=0;fontColor=#232F3E;gradientColor=none;fillColor=#ED7100;strokeColor=none;dashed=0;verticalLabelPosition=bottom;verticalAlign=top;align=center;html=1;fontSize=12;fontStyle=0;aspect=fixed;pointerEvents=1;shape=mxgraph.aws4.lambda_function;" vertex="1" parent="CfEisWrMyOf9icWctsmT-8">
          <mxGeometry x="66" y="410" width="48" height="48" as="geometry" />
        </mxCell>
        <mxCell id="CfEisWrMyOf9icWctsmT-9" value="Availability Zone 2" style="points=[[0,0],[0.25,0],[0.5,0],[0.75,0],[1,0],[1,0.25],[1,0.5],[1,0.75],[1,1],[0.75,1],[0.5,1],[0.25,1],[0,1],[0,0.75],[0,0.5],[0,0.25]];outlineConnect=0;gradientColor=none;html=1;whiteSpace=wrap;fontSize=12;fontStyle=0;container=1;pointerEvents=0;collapsible=0;recursiveResize=0;shape=mxgraph.aws4.group;grIcon=mxgraph.aws4.group_security_group;grStroke=0;strokeColor=#147EBA;fillColor=#E6F2F8;verticalAlign=top;align=left;spacingLeft=30;fontColor=#147EBA;dashed=0;" vertex="1" parent="CfEisWrMyOf9icWctsmT-3">
          <mxGeometry x="265" y="30" width="180" height="520" as="geometry" />
        </mxCell>
        <mxCell id="CfEisWrMyOf9icWctsmT-11" value="Reader Instance 1" style="sketch=0;outlineConnect=0;fontColor=#232F3E;gradientColor=none;fillColor=#C925D1;strokeColor=none;dashed=0;verticalLabelPosition=bottom;verticalAlign=top;align=center;html=1;fontSize=12;fontStyle=0;aspect=fixed;pointerEvents=1;shape=mxgraph.aws4.aurora_instance;" vertex="1" parent="CfEisWrMyOf9icWctsmT-9">
          <mxGeometry x="51" y="210" width="78" height="78" as="geometry" />
        </mxCell>
        <mxCell id="CfEisWrMyOf9icWctsmT-17" style="edgeStyle=orthogonalEdgeStyle;rounded=0;orthogonalLoop=1;jettySize=auto;html=1;" edge="1" parent="CfEisWrMyOf9icWctsmT-3" source="CfEisWrMyOf9icWctsmT-16" target="CfEisWrMyOf9icWctsmT-11">
          <mxGeometry relative="1" as="geometry" />
        </mxCell>
        <mxCell id="CfEisWrMyOf9icWctsmT-18" style="edgeStyle=orthogonalEdgeStyle;rounded=0;orthogonalLoop=1;jettySize=auto;html=1;" edge="1" parent="CfEisWrMyOf9icWctsmT-3" source="CfEisWrMyOf9icWctsmT-16" target="CfEisWrMyOf9icWctsmT-12">
          <mxGeometry relative="1" as="geometry" />
        </mxCell>
        <mxCell id="CfEisWrMyOf9icWctsmT-16" value="Custom Endpoint" style="sketch=0;outlineConnect=0;fontColor=#232F3E;gradientColor=none;fillColor=#8C4FFF;strokeColor=none;dashed=0;verticalLabelPosition=bottom;verticalAlign=top;align=center;html=1;fontSize=12;fontStyle=0;aspect=fixed;pointerEvents=1;shape=mxgraph.aws4.network_load_balancer;" vertex="1" parent="CfEisWrMyOf9icWctsmT-3">
          <mxGeometry x="450" y="60" width="40" height="40" as="geometry" />
        </mxCell>
        <mxCell id="CfEisWrMyOf9icWctsmT-19" style="edgeStyle=orthogonalEdgeStyle;rounded=0;orthogonalLoop=1;jettySize=auto;html=1;" edge="1" parent="CfEisWrMyOf9icWctsmT-2" source="CfEisWrMyOf9icWctsmT-14" target="CfEisWrMyOf9icWctsmT-15">
          <mxGeometry relative="1" as="geometry" />
        </mxCell>
        <mxCell id="CfEisWrMyOf9icWctsmT-20" value="New Instance Event" style="edgeLabel;html=1;align=center;verticalAlign=middle;resizable=0;points=[];" vertex="1" connectable="0" parent="CfEisWrMyOf9icWctsmT-19">
          <mxGeometry x="0.249" y="2" relative="1" as="geometry">
            <mxPoint x="-23" y="2" as="offset" />
          </mxGeometry>
        </mxCell>
        <mxCell id="CfEisWrMyOf9icWctsmT-14" value="Amazon RDS Service" style="sketch=0;points=[[0,0,0],[0.25,0,0],[0.5,0,0],[0.75,0,0],[1,0,0],[0,1,0],[0.25,1,0],[0.5,1,0],[0.75,1,0],[1,1,0],[0,0.25,0],[0,0.5,0],[0,0.75,0],[1,0.25,0],[1,0.5,0],[1,0.75,0]];outlineConnect=0;fontColor=#232F3E;fillColor=#C925D1;strokeColor=#ffffff;dashed=0;verticalLabelPosition=bottom;verticalAlign=top;align=center;html=1;fontSize=12;fontStyle=0;aspect=fixed;shape=mxgraph.aws4.resourceIcon;resIcon=mxgraph.aws4.rds;" vertex="1" parent="CfEisWrMyOf9icWctsmT-2">
          <mxGeometry x="90" y="640" width="78" height="78" as="geometry" />
        </mxCell>
        <mxCell id="CfEisWrMyOf9icWctsmT-23" style="edgeStyle=orthogonalEdgeStyle;rounded=0;orthogonalLoop=1;jettySize=auto;html=1;" edge="1" parent="CfEisWrMyOf9icWctsmT-2" source="CfEisWrMyOf9icWctsmT-15" target="CfEisWrMyOf9icWctsmT-21">
          <mxGeometry relative="1" as="geometry">
            <Array as="points">
              <mxPoint x="480" y="679" />
              <mxPoint x="480" y="494" />
            </Array>
          </mxGeometry>
        </mxCell>
        <mxCell id="CfEisWrMyOf9icWctsmT-24" value="Trigger on New Instance Event" style="edgeLabel;html=1;align=center;verticalAlign=middle;resizable=0;points=[];" vertex="1" connectable="0" parent="CfEisWrMyOf9icWctsmT-23">
          <mxGeometry x="-0.3552" relative="1" as="geometry">
            <mxPoint y="-10" as="offset" />
          </mxGeometry>
        </mxCell>
        <mxCell id="CfEisWrMyOf9icWctsmT-15" value="Default Event Bus" style="sketch=0;outlineConnect=0;fontColor=#232F3E;gradientColor=none;fillColor=#E7157B;strokeColor=none;dashed=0;verticalLabelPosition=bottom;verticalAlign=top;align=center;html=1;fontSize=12;fontStyle=0;aspect=fixed;pointerEvents=1;shape=mxgraph.aws4.eventbridge_default_event_bus_resource;" vertex="1" parent="CfEisWrMyOf9icWctsmT-2">
          <mxGeometry x="336" y="652.5" width="78" height="53" as="geometry" />
        </mxCell>
        <mxCell id="CfEisWrMyOf9icWctsmT-22" value="AWS Secrets Manager" style="sketch=0;points=[[0,0,0],[0.25,0,0],[0.5,0,0],[0.75,0,0],[1,0,0],[0,1,0],[0.25,1,0],[0.5,1,0],[0.75,1,0],[1,1,0],[0,0.25,0],[0,0.5,0],[0,0.75,0],[1,0.25,0],[1,0.5,0],[1,0.75,0]];outlineConnect=0;fontColor=#232F3E;fillColor=#DD344C;strokeColor=#ffffff;dashed=0;verticalLabelPosition=bottom;verticalAlign=top;align=center;html=1;fontSize=12;fontStyle=0;aspect=fixed;shape=mxgraph.aws4.resourceIcon;resIcon=mxgraph.aws4.secrets_manager;" vertex="1" parent="CfEisWrMyOf9icWctsmT-2">
          <mxGeometry x="622" y="640" width="78" height="78" as="geometry" />
        </mxCell>
        <mxCell id="CfEisWrMyOf9icWctsmT-25" style="edgeStyle=orthogonalEdgeStyle;rounded=0;orthogonalLoop=1;jettySize=auto;html=1;entryX=0.5;entryY=0;entryDx=0;entryDy=0;entryPerimeter=0;" edge="1" parent="CfEisWrMyOf9icWctsmT-2" source="CfEisWrMyOf9icWctsmT-21" target="CfEisWrMyOf9icWctsmT-22">
          <mxGeometry relative="1" as="geometry" />
        </mxCell>
        <mxCell id="CfEisWrMyOf9icWctsmT-28" value="Retrieve database credentials" style="edgeLabel;html=1;align=center;verticalAlign=middle;resizable=0;points=[];" vertex="1" connectable="0" parent="CfEisWrMyOf9icWctsmT-25">
          <mxGeometry x="0.341" y="-2" relative="1" as="geometry">
            <mxPoint x="2" y="27" as="offset" />
          </mxGeometry>
        </mxCell>
      </root>
    </mxGraphModel>
  </diagram>
</mxfile>
